<?xml version="1.0" encoding="UTF-8"?>
<!-- Generated by Pixelmator Pro 3.2.3 -->
<svg width="134" height="134" viewBox="0 0 134 134" xmlns="http://www.w3.org/2000/svg" xmlns:xlink="http://www.w3.org/1999/xlink">
    <path id="path1" fill="#00f9e5" stroke="none" d="M 115.900002 72 C 116.699997 73.099998 117.099998 74.400002 117 75.699997 C 115.900002 102.5 93.800003 123.900002 66.699997 123.900002 C 39.599998 123.900002 17.5 102.5 16.4 75.699997 C 16.299999 74.400002 16.700001 73.099998 17.5 72 L 62.5 12.300003 C 64.800003 9.300003 69.300003 9.300003 71.599998 12.300003 L 115.900002 72 Z"/>
    <path id="path2" fill="#ffffff" stroke="none" d="M 50.599998 91.800003 C 40.400002 101 24.799999 100.199997 15.6 90.099998 C 6.4 79.900002 7.2 64.300003 17.299999 55.099998 C 27.5 45.900002 43.099998 46.699997 52.299999 56.800003 C 61.5 66.900002 60.800003 82.599998 50.599998 91.800003 Z"/>
    <path id="path3" fill="#0c6066" stroke="none" d="M 34 100.5 C 26.599998 100.5 19.200001 97.5 13.9 91.599998 C 3.9 80.5 4.7 63.300003 15.799999 53.300003 C 21.200001 48.400002 28.099998 45.900002 35.299999 46.300003 C 42.5 46.699997 49.200001 49.800003 54.099998 55.199997 C 64.099998 66.300003 63.300003 83.5 52.200001 93.5 C 47 98.199997 40.5 100.5 34 100.5 Z M 33.900002 50.900002 C 28.299999 50.900002 23 52.900002 18.799999 56.699997 C 9.6 65 8.9 79.300003 17.200001 88.5 C 21.200001 93 26.799999 95.599998 32.799999 95.900002 C 38.799999 96.199997 44.599998 94.099998 49 90.099998 C 58.199997 81.800003 58.900002 67.5 50.599998 58.300003 C 46.599998 53.800003 41 51.199997 35 50.900002 L 33.900002 50.900002 Z"/>
    <path id="path4" fill="#1e1e1e" stroke="none" d="M 25 63.5 C 19.6 68.400002 19.200001 76.699997 24.1 82 C 29 87.400002 37.299999 87.800003 42.599998 82.900002 C 44.400002 81.300003 45.599998 79.300003 46.299999 77.199997 L 25 63.5 Z"/>
    <path id="path5" fill="#0c6066" stroke="none" d="M 33.099998 47.900002 L 60.5 10.199997 C 62 8.199997 64.300003 7 66.800003 7 C 69.300003 7 71.599998 8.199997 73.099998 10.199997 L 100.099998 48 L 94.699997 48.400002 L 69.599998 13 C 69 12.199997 68 11.699997 66.900002 11.699997 C 65.800003 11.699997 64.900002 12.199997 64.300003 13 L 38 49 L 33.099998 47.900002 Z M 24.5 96.599998 C 26.799999 101 29.900002 105 33.599998 108.599998 C 42.5 117.099998 54.200001 121.900002 66.5 121.900002 C 78.800003 121.900002 90.5 117.199997 99.400002 108.599998 C 103.400002 104.800003 106.599998 100.400002 109 95.599998 L 115.5 92.099998 C 112.800003 99.5 108.400002 106.300003 102.599998 111.900002 C 92.800003 121.300003 80 126.5 66.5 126.5 C 53.04583 126.509155 40.109726 121.313217 30.400002 112 C 24.700001 106.5 20.4 100 17.700001 92.800003 L 24.5 96.599998 Z"/>
    <linearGradient id="linearGradient1" x1="24.819034" y1="48.011068" x2="58.730603" y2="81.922637" gradientUnits="userSpaceOnUse">
        <stop offset="1e-05" stop-color="#00f9e5" stop-opacity="1"/>
        <stop offset="0.568" stop-color="#299df4" stop-opacity="1"/>
        <stop offset="1" stop-color="#4a54ff" stop-opacity="1"/>
    </linearGradient>
    <path id="path6" fill="url(#linearGradient1)" stroke="none" d="M 56.700001 83.400002 C 60.599998 74.400002 59 63.5 51.599998 56 C 42.400002 46.699997 27.299999 46.199997 17.5 54.800003 C 16.799999 55.5 16.1 56.099998 15.4 56.900002 C 15.200001 57.099998 15.299999 57.400002 15.5 57.5 L 56 83.599998 C 56.200001 83.699997 56.599998 83.599998 56.700001 83.400002 Z"/>
    <path id="path7" fill="#0c6066" stroke="none" d="M 56.700001 83.400002 L 58.800003 84.300003 C 60.300003 80.800003 61.099998 77.099998 61.099998 73.400002 C 61.099998 66.5 58.5 59.599998 53.299999 54.300003 C 48 49 41 46.300003 34 46.300003 C 27.599998 46.300003 21.1 48.5 16 53.099998 C 15.200001 53.800003 14.4 54.599998 13.700001 55.300003 C 13.200001 55.900002 13 56.5 13 57.199997 C 13 58.099998 13.4 59 14.299999 59.5 L 54.700001 85.5 C 55.200001 85.800003 55.700001 85.900002 56.200001 85.900002 C 56.700001 85.900002 57.200001 85.800003 57.700001 85.5 C 58.099998 85.199997 58.5 84.800003 58.800003 84.300003 L 56.700001 83.400002 L 54.599998 82.5 L 56.299999 83.300003 L 55.299999 81.699997 C 55 81.900002 54.700001 82.199997 54.599998 82.5 L 56.299999 83.300003 L 55.299999 81.699997 L 56.299999 83.300003 L 56.299999 81.400002 C 55.900002 81.400002 55.599998 81.5 55.299999 81.699997 L 56.299999 83.300003 L 56.299999 81.400002 L 56.299999 83.300003 L 57.299999 81.699997 C 57 81.5 56.599998 81.400002 56.299999 81.400002 L 56.299999 83.300003 L 57.299999 81.699997 L 16.799999 55.599998 L 15.799999 57.199997 L 17.700001 57.199997 C 17.700001 56.599998 17.4 56 16.799999 55.599998 L 15.799999 57.199997 L 17.700001 57.199997 L 15.799999 57.199997 L 17.200001 58.5 C 17.5 58.099998 17.700001 57.699997 17.700001 57.199997 L 15.799999 57.199997 L 17.200001 58.5 C 17.799999 57.900002 18.4 57.199997 19.1 56.599998 C 23.299999 52.900002 28.599998 51 34 51 C 39.799999 51 45.700001 53.199997 50 57.599998 C 54.400002 62 56.5 67.699997 56.5 73.400002 C 56.5 76.5 55.900002 79.599998 54.599998 82.400002 L 56.700001 83.400002 Z"/>
    <path id="path8" fill="#ffffff" stroke="none" d="M 82.599998 91.800003 C 92.800003 101 108.400002 100.199997 117.599998 90.099998 C 126.800003 79.900002 126 64.300003 115.900002 55.099998 C 105.699997 45.900002 90.099998 46.699997 80.900002 56.800003 C 71.699997 66.900002 72.400002 82.599998 82.599998 91.800003 Z"/>
    <path id="path9" fill="#0c6066" stroke="none" d="M 81 93.5 C 69.900002 83.5 69.099998 66.300003 79.099998 55.199997 C 84 49.800003 90.599998 46.699997 97.900002 46.300003 C 105.099998 45.900002 112.099998 48.400002 117.400002 53.300003 C 128.5 63.300003 129.300003 80.5 119.300003 91.599998 C 114 97.5 106.599998 100.5 99.199997 100.5 C 92.699997 100.5 86.199997 98.199997 81 93.5 Z M 98.099998 50.900002 C 92.099998 51.199997 86.599998 53.800003 82.5 58.300003 C 74.199997 67.5 74.900002 81.800003 84.099998 90.099998 C 88.599998 94.099998 94.300003 96.199997 100.300003 95.900002 C 106.300003 95.599998 111.800003 93 115.900002 88.5 C 124.199997 79.300003 123.5 65 114.300003 56.699997 C 110.099998 52.900002 104.800003 50.900002 99.199997 50.900002 L 98.099998 50.900002 Z"/>
    <path id="path10" fill="#1e1e1e" stroke="none" d="M 108.199997 63.400002 C 113.599998 68.300003 114 76.599998 109.099998 81.900002 C 104.199997 87.300003 95.900002 87.699997 90.599998 82.800003 C 88.800003 81.199997 87.599998 79.199997 86.900002 77.099998 L 108.199997 63.400002 Z"/>
    <linearGradient id="linearGradient2" x1="108.359464" y1="47.941735" x2="74.447895" y2="81.853303" gradientUnits="userSpaceOnUse">
        <stop offset="1e-05" stop-color="#00f9e5" stop-opacity="1"/>
        <stop offset="0.568" stop-color="#299df4" stop-opacity="1"/>
        <stop offset="1" stop-color="#4a54ff" stop-opacity="1"/>
    </linearGradient>
    <path id="path11" fill="url(#linearGradient2)" stroke="none" d="M 76.5 83.300003 C 72.599998 74.300003 74.199997 63.400002 81.599998 55.900002 C 90.800003 46.599998 105.900002 46.099998 115.699997 54.699997 C 116.400002 55.400002 117.099998 56 117.800003 56.800003 C 118 57 117.900002 57.300003 117.699997 57.400002 L 77.199997 83.5 C 76.900002 83.699997 76.599998 83.599998 76.5 83.300003 Z"/>
    <path id="path12" fill="#0c6066" stroke="none" d="M 76.5 83.300003 L 78.599998 82.400002 C 77.300003 79.5 76.699997 76.5 76.699997 73.400002 C 76.699997 67.699997 78.800003 62 83.199997 57.599998 C 87.5 53.199997 93.400002 51 99.199997 51 C 104.5 51 109.800003 52.900002 114.099998 56.599998 C 114.800003 57.199997 115.400002 57.800003 116 58.5 L 117.400002 57.199997 L 115.5 57.199997 C 115.5 57.599998 115.699997 58.099998 116 58.5 L 117.400002 57.199997 L 115.5 57.199997 L 117.400002 57.199997 L 116.400002 55.599998 C 115.900002 56 115.5 56.599998 115.5 57.199997 L 117.400002 57.199997 L 116.400002 55.599998 L 75.900002 81.599998 L 76.900002 83.199997 L 76.900002 81.300003 C 76.599998 81.300003 76.199997 81.400002 75.900002 81.599998 L 76.900002 83.199997 L 76.900002 81.300003 L 76.900002 83.199997 L 77.900002 81.599998 C 77.599998 81.400002 77.300003 81.300003 76.900002 81.300003 L 76.900002 83.199997 L 77.900002 81.599998 L 76.900002 83.199997 L 78.599998 82.400002 C 78.400002 82 78.199997 81.699997 77.900002 81.599998 L 76.900002 83.199997 L 78.599998 82.400002 L 76.5 83.300003 L 74.400002 84.199997 C 74.599998 84.699997 75 85.199997 75.5 85.400002 C 75.900002 85.699997 76.5 85.800003 77 85.800003 C 77.5 85.800003 78 85.699997 78.5 85.400002 L 119 59.300003 C 119.800003 58.800003 120.199997 57.900002 120.199997 57 C 120.199997 56.400002 120 55.699997 119.5 55.199997 C 118.800003 54.400002 118 53.699997 117.199997 53 C 112.099998 48.5 105.599998 46.199997 99.199997 46.199997 C 92.199997 46.199997 85.099998 48.900002 79.900002 54.199997 C 74.699997 59.5 72.099998 66.400002 72.099998 73.300003 C 72.099998 77 72.900002 80.699997 74.400002 84.199997 L 76.5 83.300003 Z"/>
</svg>
