<?xml version="1.0" encoding="UTF-8"?>
<!-- Generated by Pixelmator Pro 3.2.3 -->
<svg width="38" height="38" viewBox="0 0 38 38" xmlns="http://www.w3.org/2000/svg" xmlns:xlink="http://www.w3.org/1999/xlink">
    <g id="g1">
        <g id="logoblack">
            <g id="g2">
                <g id="g3">
                    <linearGradient id="linearGradient1" x1="5.775445" y1="2.803629" x2="5.775445" y2="36.581509" gradientUnits="userSpaceOnUse">
                        <stop offset="1e-05" stop-color="#55c7ff" stop-opacity="1"/>
                        <stop offset="1" stop-color="#0083f5" stop-opacity="1"/>
                    </linearGradient>
                    <path id="path1" fill="url(#linearGradient1)" stroke="none" d="M 32.099998 12.900002 C 24.4 7.400002 17.5 4.400002 13.5 3.199997 C 11 2.400002 9.1 2.800003 7.9 4.5 C 6.4 6.599998 5.9 15.400002 5.8 19.599998 C 5.7 24.199997 5.9 28.900002 6.5 32.699997 C 7.3 36.800003 10.8 37.099998 14.1 36.099998 C 22.200001 33.800003 30.5 27.199997 35.099998 22.800003 C 39 19.199997 37.700001 16.900002 32.099998 12.900002 Z"/>
                </g>
            </g>
            <g id="g4">
                <g id="g5">
                    <linearGradient id="linearGradient2" x1="0.2" y1="6.425483" x2="0.2" y2="32.846956" gradientUnits="userSpaceOnUse">
                        <stop offset="1e-05" stop-color="#ffbb00" stop-opacity="1"/>
                        <stop offset="1" stop-color="#ff7405" stop-opacity="1"/>
                    </linearGradient>
                    <path id="path2" fill="url(#linearGradient2)" stroke="none" d="M 6.1 17.599998 C 6.1 11.599998 6.7 8.400002 7.2 6.699997 C 5.1 6.199997 3.2 6.300003 2.2 7.699997 C 1 9.400002 0.2 16 0.2 19.300003 C 0.3 22.900002 0.6 26.5 1.1 29.5 C 1.9 32.900002 3.6 33.199997 6.5 32.599998 C 6.2 30.300003 6 26 6.1 17.599998 Z"/>
                </g>
            </g>
            <g id="g6">
                <g id="g7">
                    <linearGradient id="linearGradient3" x1="5.6" y1="6.4" x2="5.6" y2="32.5" gradientUnits="userSpaceOnUse">
                        <stop offset="1e-05" stop-color="#affa23" stop-opacity="1"/>
                        <stop offset="1" stop-color="#63bc0a" stop-opacity="1"/>
                    </linearGradient>
                    <path id="path3" fill="url(#linearGradient3)" stroke="none" d="M 25.5 14.699997 C 14.3 8 7 6.400002 7.1 6.400002 C 6 10.199997 5.6 16.5 5.6 19.599998 C 5.6 23.900002 5.8 28.800003 6.4 32.5 C 6.4 32.5 16.700001 31.400002 28.200001 22.400002 C 31.700001 19.699997 29.700001 17.300003 25.5 14.699997 Z"/>
                </g>
            </g>
            <g id="g8">
                <g id="g9">
                    <path id="path4" fill="#ffffff" stroke="none" d="M 10.176 14.045998 C 10.176 14.045998 9.826 14.596001 9.826 19.427002 C 9.826 24.267998 10.176 24.858002 10.176 24.858002 C 10.296 25.458 10.546 25.647003 11.186 25.497002 C 11.186 25.497002 12.256 25.326996 16.556 23.127998 C 20.856001 20.917 21.576 20.098 21.576 20.098 C 22.035999 19.626999 22.156 19.316002 21.576 18.817001 C 21.576 18.817001 20.396 17.717003 16.556 15.717003 C 12.756 13.737 11.186 13.406998 11.186 13.406998 C 10.656 13.255997 10.316 13.426003 10.176 14.045998 Z"/>
                </g>
            </g>
        </g>
    </g>
</svg>
