<?xml version="1.0" encoding="UTF-8"?>
<!-- Generated by Pixelmator Pro 3.2.3 -->
<svg width="70" height="60" viewBox="0 0 70 60" xmlns="http://www.w3.org/2000/svg" xmlns:xlink="http://www.w3.org/1999/xlink">
    <g id="g1">
        <path id="path6" fill="#ff9932" fill-rule="evenodd" stroke="none" d="M 56 54 C 56 50.700001 58.700001 48 62 48 C 65.300003 48 68 50.700001 68 54 C 68 57.299999 65.300003 60 62 60 C 58.700001 60 56 57.299999 56 54 Z"/>
        <path id="path7" fill="#0fb264" fill-rule="evenodd" stroke="none" d="M 56.099998 41.700001 L 47.400002 38.200001 C 46.700001 37.900002 46.700001 37.400002 47 36.700001 C 47.799999 34.599998 48.200001 32.299999 48.200001 30 C 48.200001 20.200001 39.900002 11.799999 30 11.799999 C 20.1 11.799999 11.8 20.200001 11.8 30 C 11.8 32.299999 12.4 34.700001 13.2 36.799999 C 13.4 37.200001 13.4 37.700001 13.2 38.099998 C 13 38.400002 12.8 38.099998 12.5 38.200001 L 3.6 41.099998 C 3.5 41.200001 3.3 41.200001 3.2 41.200001 C 2.6 41.200001 2.2 40.900002 2 40.299999 C 0.7 36.900002 0 33.5 0 30 C 0 13.5 13.5 0 30 0 C 46.5 0 60 13.400002 60 29.9 C 60 33.799999 59.299999 37.5 57.900002 41 C 57.799999 41.299999 57.5 41.599998 57.099998 41.700001 C 56.900002 41.799999 56.799999 41.799999 56.599998 41.799999 C 56.400002 41.799999 56.299999 41.799999 56.099998 41.700001 Z"/>
        <path id="path8" fill="#ff9932" fill-rule="evenodd" stroke="none" d="M 3.3 43.799999 C 2.8 42.799999 2.4 41.700001 2 40.700001 C 1.8 40.200001 1.8 39.799999 1.8 39.599998 C 1.8 36.299999 4.5 33.700001 7.9 33.700001 C 10.4 33.700001 12.5 35.200001 13.5 37.400002 C 13.6 37.599998 13.9 38.200001 14.1 38.5 C 17.200001 44.400002 23.299999 48.200001 30 48.200001 C 36.599998 48.200001 42.599998 44.5 45.799999 38.799999 C 46.099998 38.200001 46.900002 36.799999 47 36.700001 C 48 34.700001 49.900002 33.700001 52.099998 33.700001 C 55.5 33.700001 58.200001 36.400002 58.200001 39.599998 C 58.200001 40 58.200001 40.5 57.900002 41.099998 C 57.700001 41.599998 57.5 42.099998 57.299999 42.599998 L 57.299999 42.700001 C 57.200001 43 57.099998 43.200001 56.900002 43.5 C 51.799999 53.700001 41.5 60 30 60 C 18.700001 60 8.5 53.799999 3.3 43.799999 Z"/>
    </g>
</svg>
