<?xml version="1.0" standalone="no"?><!DOCTYPE svg PUBLIC "-//W3C//DTD SVG 1.1//EN" "http://www.w3.org/Graphics/SVG/1.1/DTD/svg11.dtd"><svg t="1676383309703" class="icon" viewBox="0 0 1024 1024" version="1.1" xmlns="http://www.w3.org/2000/svg" p-id="3466" xmlns:xlink="http://www.w3.org/1999/xlink" width="200" height="200"><path d="M122.4 442.4C39.2 324 29.6 58.4 29.6 58.4S280 164.8 358.4 277.6" fill="#ED7457" p-id="3467"></path><path d="M106.4 453.6C20.8 332 9.6 70.4 9.6 59.2L8 28 36.8 40c10.4 4.8 256 109.6 337.6 225.6l-32.8 23.2C283.2 204.8 119.2 121.6 51.2 90.4c5.6 73.6 25.6 252 87.2 340.8l-32 22.4z" fill="#040000" p-id="3468"></path><path d="M204.8 558.4C121.6 439.2 112 173.6 112 173.6S361.6 280 440.8 392.8" fill="#FBEABE" p-id="3469"></path><path d="M900 442.4c83.2-118.4 92.8-384 92.8-384S742.4 164.8 664 277.6" fill="#ED7457" p-id="3470"></path><path d="M916 453.6l-32.8-23.2c61.6-88.8 81.6-267.2 87.2-340.8-68 32-232 114.4-290.4 198.4l-32.8-23.2C728.8 149.6 974.4 44 984.8 40l28.8-12-0.8 31.2c-0.8 11.2-11.2 272.8-96.8 394.4z" fill="#040000" p-id="3471"></path><path d="M817.6 558.4c83.2-118.4 92.8-384 92.8-384S660 280 581.6 392.8" fill="#FBEABE" p-id="3472"></path><path d="M960.8 610.4c-19.2-2.4-34.4-18.4-35.2-37.6-8-149.6-98.4-276.8-226.4-338.4-40.8-20-65.6-60.8-69.6-106.4 0-1.6-0.8-3.2-0.8-5.6-27.2 26.4-68.8 41.6-68.8 41.6s24-54.4-16-89.6c-5.6 33.6-29.6 60-58.4 82.4-32 25.6-69.6 43.2-108.8 55.2-156 48.8-271.2 190.4-280 360-1.6 19.2-16 35.2-35.2 37.6-10.4 0.8-23.2 0.8-39.2 0 54.4 212 292 384.8 473.6 384.8h30.4c181.6 0 419.2-172.8 473.6-384.8-16 1.6-28.8 1.6-39.2 0.8z" fill="#ED7457" p-id="3473"></path><path d="M563.2 992.8h2.4c5.6-0.8 11.2-1.6 17.6-2.4h0.8c163.2-29.6 349.6-176 408-355.2-76.8 16.8-172.8 54.4-269.6 111.2-79.2 45.6-147.2 96-198.4 144.8-51.2-48.8-119.2-99.2-198.4-144.8-109.6-63.2-217.6-104-298.4-116 56.8 183.2 248 333.6 414.4 361.6h0.8c2.4 0.8 4.8 0.8 7.2 0.8 2.4 0 5.6 0.8 8 0.8s4.8 0.8 7.2 0.8c3.2 0 6.4 0.8 9.6 0.8h5.6c4.8 0 10.4 0.8 15.2 0.8h30.4c6.4 0 12 0 18.4-0.8h4c4.8-1.6 10.4-2.4 15.2-2.4z" fill="#FBEABE" p-id="3474"></path><path d="M525.6 839.2m-96 0a96 96 0 1 0 192 0 96 96 0 1 0-192 0Z" fill="#040000" p-id="3475"></path><path d="M588.8 850.4c-4.8 0-8-3.2-8-8 0-31.2-24-55.2-55.2-55.2-4.8 0-8-3.2-8-8s3.2-8 8-8c40 0 71.2 31.2 71.2 71.2 0 4.8-3.2 8-8 8z" fill="#FFFEFE" p-id="3476"></path><path d="M309.6 566.4a76 55.2 90 1 0 110.4 0 76 55.2 90 1 0-110.4 0Z" fill="#040000" p-id="3477"></path><path d="M382.4 568.8m-13.6 0a13.6 13.6 0 1 0 27.2 0 13.6 13.6 0 1 0-27.2 0Z" fill="#FFFFFF" p-id="3478"></path><path d="M629.6 566.4a76 55.2 90 1 0 110.4 0 76 55.2 90 1 0-110.4 0Z" fill="#040000" p-id="3479"></path><path d="M702.4 568.8m-13.6 0a13.6 13.6 0 1 0 27.2 0 13.6 13.6 0 1 0-27.2 0Z" fill="#FFFFFF" p-id="3480"></path><path d="M526.4 1015.2H496c-184 0-434.4-171.2-492.8-400l-1.6-5.6c-2.4-10.4 5.6-20.8 16-20h5.6c15.2 0.8 26.4 0.8 36 0 9.6-1.6 16.8-9.6 17.6-19.2 9.6-173.6 128-325.6 294.4-377.6 40-12.8 74.4-29.6 102.4-52C504 118.4 520 96 524 72l6.4-35.2 27.2 23.2c24 20.8 30.4 47.2 30.4 68.8 9.6-5.6 19.2-12.8 28-20.8l26.4-25.6 7.2 36c0.8 2.4 0.8 4.8 0.8 7.2 4 40.8 25.6 74.4 58.4 90.4 137.6 66.4 228.8 202.4 237.6 355.2 0 9.6 8 17.6 17.6 19.2 9.6 0.8 21.6 0.8 36 0h5.6c10.4-0.8 19.2 9.6 16 20l-1.6 5.6c-59.2 228-309.6 399.2-493.6 399.2z m-476.8-384c64.8 196 287.2 344 446.4 344h30.4c159.2 0 381.6-148.8 446.4-344-4.8 0-9.6 0-13.6-0.8h-0.8c-28.8-4-51.2-28-52.8-56.8-8-137.6-89.6-260.8-214.4-320.8-37.6-17.6-64.8-52-76-93.6-24 15.2-46.4 24-48 24.8l-8.8 3.2c-13.6 4.8-26.4-8.8-20-21.6l4-8.8c0.8-0.8 7.2-16.8 4.8-35.2-11.2 17.6-27.2 34.4-48.8 52-31.2 24.8-70.4 44.8-115.2 58.4-150.4 46.4-257.6 184-266.4 341.6-2.4 29.6-24.8 52.8-52.8 56h-0.8c-4 0.8-8.8 1.6-13.6 1.6z" fill="#040000" p-id="3481"></path></svg>