<?xml version="1.0" standalone="no"?><!DOCTYPE svg PUBLIC "-//W3C//DTD SVG 1.1//EN" "http://www.w3.org/Graphics/SVG/1.1/DTD/svg11.dtd"><svg t="1674968972458" class="icon" viewBox="0 0 1024 1024" version="1.1" xmlns="http://www.w3.org/2000/svg" p-id="6706" xmlns:xlink="http://www.w3.org/1999/xlink" width="200" height="200"><path d="M512 929.959184c-230.4 0-417.959184-187.559184-417.959184-417.959184s187.559184-417.959184 417.959184-417.959184 417.959184 187.559184 417.959184 417.959184-187.559184 417.959184-417.959184 417.959184z m0-794.122449c-207.412245 0-376.163265 168.75102-376.163265 376.163265s168.75102 376.163265 376.163265 376.163265 376.163265-168.75102 376.163265-376.163265-168.75102-376.163265-376.163265-376.163265z" fill="#999999" p-id="6707" data-spm-anchor-id="a313x.7781069.0.i0" class="selected"></path><path d="M355.265306 689.632653c-5.22449 0-10.44898-2.089796-14.628571-6.269388-8.359184-8.359184-8.359184-21.420408 0-29.779592l313.469387-313.469387c8.359184-8.359184 21.420408-8.359184 29.779592 0 8.359184 8.359184 8.359184 21.420408 0 29.779592l-313.469387 313.469387c-4.702041 4.179592-9.926531 6.269388-15.151021 6.269388z" fill="#999999" p-id="6708" data-spm-anchor-id="a313x.7781069.0.i3" class="selected"></path><path d="M668.734694 689.632653c-5.22449 0-10.44898-2.089796-14.628572-6.269388l-313.469387-313.469387c-8.359184-8.359184-8.359184-21.420408 0-29.779592 8.359184-8.359184 21.420408-8.359184 29.779592 0l313.469387 313.469387c8.359184 8.359184 8.359184 21.420408 0 29.779592-4.702041 4.179592-9.926531 6.269388-15.15102 6.269388z" fill="#999999" p-id="6709" data-spm-anchor-id="a313x.7781069.0.i1" class="selected"></path></svg>