<?xml version="1.0" standalone="no"?><!DOCTYPE svg PUBLIC "-//W3C//DTD SVG 1.1//EN" "http://www.w3.org/Graphics/SVG/1.1/DTD/svg11.dtd"><svg t="1676383221429" class="icon" viewBox="0 0 1024 1024" version="1.1" xmlns="http://www.w3.org/2000/svg" p-id="2655" xmlns:xlink="http://www.w3.org/1999/xlink" width="200" height="200"><path d="M504.32 509.9008m-450.816 0a450.816 450.816 0 1 0 901.632 0 450.816 450.816 0 1 0-901.632 0Z" fill="#00B51D" p-id="2656" data-spm-anchor-id="a313x.7781069.0.i1" class="selected"></path><path d="M268.0832 251.136h472.4736v75.6224H268.0832z" fill="#FFFFFF" p-id="2657"></path><path d="M640.8704 693.0432l30.72-102.1952h38.2976V359.2704H298.8032v231.5776h35.584l30.72 102.1952H241.6128v75.6224h525.4144v-75.6224h-126.1568zM374.4256 434.8928h259.7888v80.3328H374.4256V434.8928z m44.4416 155.9552h168.1408l-35.2768 102.1952H454.144l-35.2768-102.1952z" fill="#05C46D" p-id="2658"></path><path d="M640.8704 693.0432l30.72-102.1952h38.2976V359.2704H298.8032v231.5776h35.584l30.72 102.1952H241.6128v75.6224h525.4144v-75.6224h-126.1568zM374.4256 434.8928h259.7888v80.3328H374.4256V434.8928z m44.4416 155.9552h168.1408l-35.2768 102.1952H454.144l-35.2768-102.1952z" fill="#FFFFFF" p-id="2659"></path></svg>