<?xml version="1.0" standalone="no"?><!DOCTYPE svg PUBLIC "-//W3C//DTD SVG 1.1//EN" "http://www.w3.org/Graphics/SVG/1.1/DTD/svg11.dtd"><svg t="1677753497657" class="icon" viewBox="0 0 1024 1024" version="1.1" xmlns="http://www.w3.org/2000/svg" p-id="6143" width="128" height="128" xmlns:xlink="http://www.w3.org/1999/xlink"><path d="M583.68 404.48m-256 0a256 256 0 1 0 512 0 256 256 0 1 0-512 0Z" fill="#FFD84A" p-id="6144"></path><path d="M494.08 880.64c-190.72 0-345.6-154.88-345.6-345.6s154.88-345.6 345.6-345.6 345.6 154.88 345.6 345.6-154.88 345.6-345.6 345.6z m0-640c-162.56 0-294.4 131.84-294.4 294.4s131.84 294.4 294.4 294.4 294.4-131.84 294.4-294.4-131.84-294.4-294.4-294.4z" p-id="6145" data-spm-anchor-id="a313x.7781069.0.i4" class="" fill="#f1404b"></path><path d="M849.92 901.12c-6.4 0-11.52-2.56-16.64-6.4l-128-107.52c-10.24-8.96-12.8-25.6-2.56-35.84 8.96-10.24 25.6-12.8 35.84-2.56l128 107.52c10.24 8.96 12.8 25.6 2.56 35.84-5.12 6.4-12.8 8.96-19.2 8.96z" p-id="6146" data-spm-anchor-id="a313x.7781069.0.i5" class="" fill="#f1404b"></path></svg>
