<?xml version="1.0" standalone="no"?><!DOCTYPE svg PUBLIC "-//W3C//DTD SVG 1.1//EN" "http://www.w3.org/Graphics/SVG/1.1/DTD/svg11.dtd"><svg t="1676367233923" class="icon" viewBox="0 0 1024 1024" version="1.1" xmlns="http://www.w3.org/2000/svg" p-id="4659" xmlns:xlink="http://www.w3.org/1999/xlink" width="200" height="200"><path d="M804.352 582.8096c0-48.4352 31.232-89.4976 74.7008-104.2432 18.1248-6.144 29.8496-23.7568 29.8496-42.8544v-43.52c0-59.1872-47.9744-107.1616-107.1616-107.1616H225.9456c-59.1872 0-107.1616 47.9744-107.1616 107.1616v43.7248c0 19.0464 11.6224 36.608 29.6448 42.8544 43.1104 14.9504 74.0352 55.8592 74.0352 104.0384s-30.976 89.088-74.0352 104.0384c-18.0224 6.2464-29.6448 23.7568-29.6448 42.8544v43.776c0 59.1872 47.9744 107.1616 107.1616 107.1616h575.744c59.1872 0 107.1616-47.9744 107.1616-107.1616v-43.4688c0-19.1488-11.7248-36.7616-29.8496-42.9056-43.4176-14.7968-74.6496-55.8592-74.6496-104.2944z" fill="#FF5F5F" p-id="4660"></path><path d="M655.0016 519.424H385.8944c-8.4992 0-15.36-6.8608-15.36-15.36s6.8608-15.36 15.36-15.36h269.1072c8.4992 0 15.36 6.8608 15.36 15.36s-6.8608 15.36-15.36 15.36zM655.0016 668.1088H385.8944c-8.4992 0-15.36-6.8608-15.36-15.36s6.8608-15.36 15.36-15.36h269.1072c8.4992 0 15.36 6.8608 15.36 15.36s-6.8608 15.36-15.36 15.36z" fill="#FFFFFF" p-id="4661"></path><path d="M883.968 493.1072c24.1152-8.192 40.2944-31.2832 40.2944-57.3952v-43.52c0-62.464-47.0528-114.1248-107.52-121.5488-1.2288-0.8704-2.5088-1.6384-3.9936-2.1504L369.1008 114.6368c-49.1008-16.9984-103.8336 8.704-122.0096 57.3952l-36.864 98.6624C150.0672 278.4768 103.4752 329.984 103.4752 392.192v43.7248c0 26.0096 16.0768 49.1008 39.936 57.3952 38.144 13.2096 63.744 49.2032 63.744 89.4976s-25.6 76.288-63.744 89.5488c-23.9104 8.2944-39.936 31.3344-39.936 57.344v43.776c0 67.5328 54.9376 122.5216 122.5216 122.5216h575.744c67.5328 0 122.5216-54.9376 122.5216-122.5216v-43.4688c0-26.1632-16.1792-49.2544-40.2944-57.4464-38.4512-13.056-64.256-49.152-64.256-89.7024s25.8048-76.6464 64.256-89.7536zM275.8656 182.784c12.3904-33.1776 49.7152-50.7392 83.2-39.1168l363.4176 126.0544H243.4048l32.4608-86.9376z m513.1264 400.0256c0 53.76 34.2016 101.4784 85.0944 118.784 11.6224 3.9424 19.456 15.36 19.456 28.3648v43.4688c0 50.5856-41.1648 91.8016-91.8016 91.8016H225.9456c-50.5856 0-91.8016-41.1648-91.8016-91.8016v-43.776c0-12.9536 7.7824-24.32 19.3024-28.3136 50.4832-17.5104 84.3776-65.1264 84.3776-118.528 0-53.4016-33.8944-101.0176-84.3776-118.528-11.5712-3.9936-19.3024-15.4112-19.3024-28.3648V392.192c0-50.5856 41.1648-91.8016 91.8016-91.8016h575.744c50.5856 0 91.8016 41.1648 91.8016 91.8016v43.52c0 13.0048-7.8336 24.3712-19.456 28.3136a125.47584 125.47584 0 0 0-85.0432 118.784z" fill="#424242" p-id="4662"></path></svg>