<?xml version="1.0" standalone="no"?><!DOCTYPE svg PUBLIC "-//W3C//DTD SVG 1.1//EN" "http://www.w3.org/Graphics/SVG/1.1/DTD/svg11.dtd"><svg t="1682944623514" class="icon" viewBox="0 0 1024 1024" version="1.1" xmlns="http://www.w3.org/2000/svg" p-id="4059" xmlns:xlink="http://www.w3.org/1999/xlink" width="200" height="200"><path d="M512 512m-512 0a512 512 0 1 0 1024 0 512 512 0 1 0-1024 0Z" fill="#A68EC0" p-id="4060"></path><path d="M445.8 217.7H247.5c-20 0-36.3 16.3-36.3 36.3v198.6c0 20 16.3 36.3 36.3 36.3h198.6c20 0 36.3-16.3 36.3-36.3V254.1c-0.3-20-16.6-36.4-36.6-36.4z m1.5 199.8c0 20-16.3 36.3-36.3 36.3H282.3c-20 0-36.3-16.3-36.3-36.3V288.9c0-20 16.3-36.3 36.3-36.3H411c20 0 36.3 16.3 36.3 36.3v128.6z" fill="#FFFFFF" p-id="4061"></path><path d="M374.4 310.1H319c-8.5 0-15.7 7-15.7 15.7v55.4c0 8.5 7 15.7 15.7 15.7h55.4c8.5 0 15.7-7 15.7-15.7v-55.7c-0.3-8.5-7.3-15.4-15.7-15.4zM704.3 310.1h-55.4c-8.5 0-15.7 7-15.7 15.7v55.4c0 8.5 7 15.7 15.7 15.7h55.4c8.5 0 15.7-7 15.7-15.7v-55.7c-0.2-8.5-7.2-15.4-15.7-15.4zM445.8 535.6H247.5c-20 0-36.3 16.3-36.3 36.3v198.6c0 20 16.3 36.3 36.3 36.3h198.6c20 0 36.3-16.3 36.3-36.3V571.9c-0.3-19.9-16.6-36.3-36.6-36.3z m1.5 199.8c0 20-16.3 36.3-36.3 36.3H282.3c-20 0-36.3-16.3-36.3-36.3V606.8c0-20 16.3-36.3 36.3-36.3H411c20 0 36.3 16.3 36.3 36.3v128.6z" fill="#FFFFFF" p-id="4062"></path><path d="M374.4 627.9H319c-8.5 0-15.7 7-15.7 15.7V699c0 8.5 7 15.7 15.7 15.7h55.4c8.5 0 15.7-7 15.7-15.7v-55.4c-0.3-8.7-7.3-15.7-15.7-15.7zM676.8 806.9c-9.7 0-17.6-7.9-17.6-17.6v-97.4c0-9.7 7.9-17.6 17.6-17.6 9.7 0 17.6 7.9 17.6 17.6v97.4c0 9.7-7.9 17.6-17.6 17.6zM782.6 632.2c-9.6 0-17.4-7.8-17.4-17.4V553c0-9.6 7.8-17.4 17.4-17.4 9.6 0 17.4 7.8 17.4 17.4v61.8c0 9.6-7.8 17.4-17.4 17.4zM782.6 645.8c9.6 0 17.4 7.8 17.4 17.4v126.3c0 9.6-7.8 17.4-17.4 17.4-9.6 0-17.4-7.8-17.4-17.4V663.2c0-9.6 7.8-17.4 17.4-17.4zM676.8 541c9.6 0 17.5 7.9 17.5 17.5V634c0 9.6-7.9 17.5-17.5 17.5s-17.5-7.9-17.5-17.5v-75.5c-0.1-9.6 7.8-17.5 17.5-17.5zM570.5 806.9c-9.7 0-17.6-7.9-17.6-17.6V649.8c0-9.7 7.9-17.6 17.6-17.6 9.7 0 17.6 7.9 17.6 17.6v139.5c0 9.7-7.9 17.6-17.6 17.6zM570.5 535.6c9.7 0 17.6 7.9 17.6 17.6v49.9c0 9.7-7.9 17.6-17.6 17.6-9.7 0-17.6-7.9-17.6-17.6v-49.9c0.1-9.7 8-17.6 17.6-17.6z" fill="#FFFFFF" p-id="4063"></path><path d="M777.3 417.5c0 20-16.3 36.3-36.3 36.3H612.3c-20 0-36.3-16.3-36.3-36.3V288.9c0-20 16.3-36.3 36.3-36.3h71.1c-3.6-11.6-5.6-23.3-5.7-34.8H577.2c-20 0-36.3 16.3-36.3 36.3v198.6c0 20 16.3 36.3 36.3 36.3h198.6c20 0 36.3-16.3 36.3-36.3v-83.9c-11.7-3.1-23.3-7.4-34.8-13v61.7z" fill="#FFFFFF" p-id="4064"></path><path d="M775.8 217.7h-98.1c0.2 11.5 2.1 23.2 5.7 34.8H741c20 0 36.3 16.3 36.3 36.3v67c11.5 5.6 23.2 9.9 34.8 13V254.1c0-20-16.3-36.4-36.3-36.4z" fill="#FFFFFF" opacity=".4" p-id="4065"></path></svg>