<?xml version="1.0" standalone="no"?><!DOCTYPE svg PUBLIC "-//W3C//DTD SVG 1.1//EN" "http://www.w3.org/Graphics/SVG/1.1/DTD/svg11.dtd"><svg t="1682944663543" class="icon" viewBox="0 0 1024 1024" version="1.1" xmlns="http://www.w3.org/2000/svg" p-id="6711" xmlns:xlink="http://www.w3.org/1999/xlink" width="200" height="200"><path d="M502.597837 397.398082m-254.171801 0a254.171802 254.171802 0 1 0 508.343603 0 254.171802 254.171802 0 1 0-508.343603 0Z" fill="#FFD800" p-id="6712"></path><path d="M827.28586 744.442359h-283.109569A34.579065 34.579065 0 0 1 509.597225 710.385636V331.0606a34.683534 34.683534 0 0 1 34.579066-34.683534h283.109569a34.683534 34.683534 0 0 1 34.579066 34.683534V710.385636a34.683534 34.683534 0 0 1-34.579066 34.056723zM544.176291 313.405427a17.341767 17.341767 0 0 0-17.341767 17.341767V710.385636a17.341767 17.341767 0 0 0 17.341767 17.237298h283.109569A17.237299 17.237299 0 0 0 844.523159 710.385636V331.0606A17.237299 17.237299 0 0 0 827.28586 313.405427z" fill="" p-id="6713"></path><path d="M792.811263 466.556213h-214.160375a8.670883 8.670883 0 0 1-8.670884-8.566415v-94.021628a8.670883 8.670883 0 0 1 8.670884-8.670884h214.160375a8.670883 8.670883 0 0 1 8.566415 8.670884v94.021628a8.566415 8.566415 0 0 1-8.566415 8.566415zM587.321771 449.214446h196.818609v-76.888798H587.321771zM630.885125 534.983065h-45.130381a8.566415 8.566415 0 0 1-8.566415-8.566415v-45.130382a8.566415 8.566415 0 0 1 8.566415-8.566415h45.130381a8.670883 8.670883 0 0 1 8.670884 8.566415v45.130382a8.670883 8.670883 0 0 1-8.670884 8.566415z m-36.459498-17.237299h27.788615V489.957152H594.425627zM792.811263 534.983065h-45.130382a8.566415 8.566415 0 0 1-8.566415-8.566415v-45.130382a8.566415 8.566415 0 0 1 8.566415-8.566415h45.130382a8.566415 8.566415 0 0 1 8.566415 8.566415v45.130382a8.566415 8.566415 0 0 1-8.566415 8.566415z m-36.459498-17.237299h27.788615V489.957152H756.351765zM711.848194 534.983065h-45.130381a8.566415 8.566415 0 0 1-8.566415-8.566415v-45.130382a8.566415 8.566415 0 0 1 8.566415-8.566415h45.130381a8.670883 8.670883 0 0 1 8.670884 8.566415v45.130382a8.670883 8.670883 0 0 1-8.670884 8.566415z m-36.459498-17.237299h27.788615V489.957152h-27.788615zM630.885125 606.439502h-45.130381a8.670883 8.670883 0 0 1-8.566415-8.670883v-45.025913a8.670883 8.670883 0 0 1 8.566415-8.670884h45.130381a8.670883 8.670883 0 0 1 8.670884 8.670884v45.025913a8.670883 8.670883 0 0 1-8.670884 8.670883z m-36.459498-17.341767h27.788615v-27.788614H594.425627zM792.811263 606.439502h-45.130382a8.670883 8.670883 0 0 1-8.566415-8.670883v-45.025913a8.670883 8.670883 0 0 1 8.566415-8.670884h45.130382a8.670883 8.670883 0 0 1 8.566415 8.670884v45.025913a8.670883 8.670883 0 0 1-8.566415 8.670883z m-36.459498-17.341767h27.788615v-27.788614H756.351765zM711.848194 606.439502h-45.130381a8.670883 8.670883 0 0 1-8.566415-8.670883v-45.025913a8.670883 8.670883 0 0 1 8.566415-8.670884h45.130381a8.670883 8.670883 0 0 1 8.670884 8.670884v45.025913a8.670883 8.670883 0 0 1-8.670884 8.670883z m-36.459498-17.341767h27.788615v-27.788614h-27.788615zM630.885125 677.791471h-45.130381a8.670883 8.670883 0 0 1-8.566415-8.670883v-45.025913a8.670883 8.670883 0 0 1 8.566415-8.670884h45.130381a8.670883 8.670883 0 0 1 8.670884 8.670884v45.025913a8.670883 8.670883 0 0 1-8.670884 8.670883z m-36.459498-17.237298h27.788615v-27.788615H594.425627zM792.811263 677.791471h-45.130382a8.670883 8.670883 0 0 1-8.566415-8.670883v-45.025913a8.670883 8.670883 0 0 1 8.566415-8.670884h45.130382a8.670883 8.670883 0 0 1 8.566415 8.670884v45.025913a8.670883 8.670883 0 0 1-8.566415 8.670883z m-36.459498-17.237298h27.788615v-27.788615H756.351765zM711.848194 677.791471h-45.130381a8.670883 8.670883 0 0 1-8.566415-8.670883v-45.025913a8.670883 8.670883 0 0 1 8.566415-8.670884h45.130381a8.670883 8.670883 0 0 1 8.670884 8.670884v45.025913a8.670883 8.670883 0 0 1-8.670884 8.670883z m-36.459498-17.237298h27.788615v-27.788615h-27.788615z" fill="" p-id="6714"></path><path d="M739.323403 416.829219h-4.283207a8.670883 8.670883 0 1 1 0-17.341767h4.283207a8.670883 8.670883 0 1 1 0 17.341767z m-60.27831 0h-4.387676a8.670883 8.670883 0 1 1 0-17.341767H679.045093a8.670883 8.670883 0 0 1 0 17.341767z m-60.591716 0h-4.283208a8.670883 8.670883 0 1 1 0-17.341767h4.283208a8.670883 8.670883 0 0 1 0 17.341767zM415.784534 446.18486h-4.387676a8.670883 8.670883 0 1 1 0-17.237298h4.387676a8.670883 8.670883 0 0 1 0 17.237298z m-60.591716 0h-4.283208a8.670883 8.670883 0 1 1 0-17.237298H355.192818a8.670883 8.670883 0 1 1 0 17.237298zM415.784534 342.656601h-4.387676a8.670883 8.670883 0 1 1 0-17.341767h4.387676a8.670883 8.670883 0 0 1 0 17.341767z m-60.591716 0h-4.283208a8.670883 8.670883 0 1 1 0-17.341767H355.192818a8.670883 8.670883 0 0 1 0 17.341767zM415.784534 554.414201H264.200775a8.670883 8.670883 0 1 1 0-17.237298H415.784534a8.670883 8.670883 0 0 1 0 17.237298zM305.256886 682.388084h-4.387676a8.670883 8.670883 0 0 1 0-17.341767h4.387676a8.670883 8.670883 0 1 1 0 17.341767z m-60.591716 0H240.277494a8.670883 8.670883 0 0 1 0-17.341767h4.283208a8.670883 8.670883 0 0 1 0 17.341767z m-60.487247 0h-4.387676a8.670883 8.670883 0 0 1 0-17.341767h4.387676a8.670883 8.670883 0 0 1 0 17.341767z" fill="" p-id="6715"></path><path d="M415.784534 682.388084H305.256886a8.670883 8.670883 0 0 1 0-17.341767H415.784534a8.670883 8.670883 0 0 1 0 17.341767z" fill="" p-id="6716"></path></svg>