<?xml version="1.0" standalone="no"?><!DOCTYPE svg PUBLIC "-//W3C//DTD SVG 1.1//EN" "http://www.w3.org/Graphics/SVG/1.1/DTD/svg11.dtd"><svg t="1676907658521" class="icon" viewBox="0 0 1024 1024" version="1.1" xmlns="http://www.w3.org/2000/svg" p-id="2102" width="128" height="128" xmlns:xlink="http://www.w3.org/1999/xlink"><path d="M0 0m184.32 0l655.36 0q184.32 0 184.32 184.32l0 655.36q0 184.32-184.32 184.32l-655.36 0q-184.32 0-184.32-184.32l0-655.36q0-184.32 184.32-184.32Z" fill="#FFFFFF" p-id="2103"></path><path d="M839.491873 454.579222m-106.417202 61.44l-319.251605 184.32q-106.417202 61.44-167.857201-44.977202l0 0q-61.44-106.417202 44.977201-167.857201l319.251605-184.32q106.417202-61.44 167.857202 44.977201l0 0q61.44 106.417202-44.977202 167.857202Z" fill="#5BC7F8" p-id="2104"></path><path d="M413.80864 118.86592l319.25248 184.32A122.88 122.88 0 0 1 778.04544 471.04c-25.36448 44.77952-75.91936 62.6688-105.85088 80.14848l-381.26592-219.48416a122.88 122.88 0 0 1 122.88-212.8384z" fill="#E83A70" p-id="2105"></path><path d="M425.07264 409.81504l-38.98368 25.088L675.84 552.96z" fill="#4193F3" p-id="2106"></path><path d="M307.389592 57.425555m106.417201 61.44l319.251605 184.32q106.417202 61.44 44.977202 167.857202l0 0q-61.44 106.417202-167.857202 44.977201l-319.251605-184.32q-106.417202-61.44-44.977201-167.857201l0 0q61.44-106.417202 167.857201-44.977202Z" fill="#E83A70" p-id="2107"></path><path d="M355.82976 783.36a69.34528 69.34528 0 0 1 66.56 71.68 69.34528 69.34528 0 0 1-66.56 71.68 69.34528 69.34528 0 0 1-66.56-71.68 69.34528 69.34528 0 0 1 66.56-71.68z m0 112.64a38.69696 38.69696 0 0 0 35.84-40.96 38.69696 38.69696 0 0 0-35.84-40.96 38.69696 38.69696 0 0 0-35.84 40.96 38.69696 38.69696 0 0 0 35.84 40.96z" fill="#E83B71" p-id="2108"></path><path d="M227.82976 860.16a15.36 15.36 0 0 1-11.76576-5.4784l-6.46144-7.70048-43.66336-42.35264a15.36 15.36 0 0 1-0.32768-21.71904 15.36 15.36 0 0 1 21.71904-0.32768l44.77952 43.43808 7.4752 8.88832a15.36 15.36 0 0 1-11.75552 25.25184z" fill="#E83B71" p-id="2109"></path><path d="M227.82976 860.13952a15.29856 15.29856 0 0 1-9.87136-3.60448 15.36 15.36 0 0 1-1.87392-21.63712l7.4752-8.89856 44.8-43.44832a15.36 15.36 0 0 1 21.71904 0.32768 15.36 15.36 0 0 1-0.32768 21.71904l-43.69408 42.38336-6.47168 7.70048a15.36 15.36 0 0 1-11.75552 5.45792z" fill="#E83B71" p-id="2110"></path><path d="M227.82976 921.55904a15.36 15.36 0 0 1-15.36-15.36v-64.44032a15.36 15.36 0 0 1 15.36-15.36 15.36 15.36 0 0 1 15.36 15.36v64.44032a15.36 15.36 0 0 1-15.36 15.36z" fill="#E83B71" p-id="2111"></path><path d="M447.16032 870.4a15.36 15.36 0 0 1-15.36-15.36V798.72a15.36 15.36 0 0 1 15.36-15.36 15.36 15.36 0 0 1 15.36 15.36v56.32a15.36 15.36 0 0 1-15.36 15.36z" fill="#E83B71" p-id="2112"></path><path d="M549.56032 870.4a15.36 15.36 0 0 1-15.36-15.36V798.72a15.36 15.36 0 0 1 15.36-15.36 15.36 15.36 0 0 1 15.36 15.36v56.32a15.36 15.36 0 0 1-15.36 15.36z" fill="#E83B71" p-id="2113"></path><path d="M499.65056 926.67904a62.54592 62.54592 0 0 1-59.74016-36.98688 89.63072 89.63072 0 0 1-8.11008-34.62144l30.72-0.14336v-0.08192a60.08832 60.08832 0 0 0 5.55008 22.528 31.67232 31.67232 0 0 0 31.58016 18.5856 31.35488 31.35488 0 0 0 23.93088-8.6016 50.6368 50.6368 0 0 0 10.61888-31.68256 15.37024 15.37024 0 1 1 30.72-1.26976 79.27808 79.27808 0 0 1-19.15904 54.272 61.19424 61.19424 0 0 1-46.11072 18.00192z" fill="#E83B71" p-id="2114"></path><path d="M601.6 921.56928a15.36 15.36 0 0 1-15.36-15.36v-112.64a15.36 15.36 0 0 1 15.36-15.36 15.36 15.36 0 0 1 15.36 15.36v112.64a15.36 15.36 0 0 1-15.36 15.36z" fill="#59C1F7" p-id="2115"></path><path d="M692.92032 921.5488a15.36 15.36 0 0 1-11.39712-5.05856c-18.85184-20.82816-49.63328-54.6816-54.76352-59.89376a15.36 15.36 0 0 1-5.30432-9.216l-1.98656-11.37664 9.216-4.52608c6.37952-5.29408 34.53952-31.30368 53.77024-49.19296a15.36 15.36 0 0 1 21.7088 0.768 15.36 15.36 0 0 1-0.77824 21.76c-0.13312 0.1024-14.03904 13.04576-27.87328 25.78432-6.69696 6.144-12.288 11.264-16.73216 15.29856a6047.232 6047.232 0 0 1 17.52064 19.1488c13.8752 15.22688 27.86304 30.72 28.0064 30.84288a15.36 15.36 0 0 1-11.38688 25.66144z" fill="#59C1F7" p-id="2116"></path><path d="M744.94976 870.4a15.36 15.36 0 0 1-15.36-15.36V798.72a15.36 15.36 0 0 1 15.36-15.36 15.36 15.36 0 0 1 15.36 15.36v56.32a15.36 15.36 0 0 1-15.36 15.36z" fill="#59C1F7" p-id="2117"></path><path d="M847.34976 870.4a15.36 15.36 0 0 1-15.36-15.36V798.72a15.36 15.36 0 0 1 15.36-15.36 15.36 15.36 0 0 1 15.36 15.36v56.32a15.36 15.36 0 0 1-15.36 15.36z" fill="#59C1F7" p-id="2118"></path><path d="M797.44 926.67904a62.54592 62.54592 0 0 1-59.74016-36.98688 89.63072 89.63072 0 0 1-8.11008-34.62144l30.72-0.14336v-0.08192a60.08832 60.08832 0 0 0 5.55008 22.528 31.67232 31.67232 0 0 0 31.58016 18.5856 31.35488 31.35488 0 0 0 23.93088-8.6016 50.6368 50.6368 0 0 0 10.61888-31.68256 15.37024 15.37024 0 1 1 30.72-1.26976 79.27808 79.27808 0 0 1-19.15904 54.272 61.19424 61.19424 0 0 1-46.11072 18.00192z" fill="#59C1F7" p-id="2119"></path></svg>